<svg preserveAspectRatio="none" width="100%" height="100%" overflow="visible" style="display: block;" viewBox="0 0 19.7484 22.2407" fill="none" xmlns="http://www.w3.org/2000/svg">
<g id="Layer 1">
<path id="Vector" d="M19.4176 9.78617L17.8878 10.6755L19.3718 9.78617L17.8678 8.8249L19.3961 7.90824V6.27925C19.3961 6.26199 19.3961 6.24328 19.3961 6.22457C19.3953 6.0629 19.3605 5.90323 19.2942 5.75595C19.2279 5.60867 19.1314 5.4771 19.0112 5.36979L18.9768 5.33957L18.9296 5.30215C18.8651 5.25372 18.7967 5.21087 18.725 5.17408L18.4259 5.00428L17.3383 4.338L15.664 5.32518V3.4343L15.6855 3.42134L13.5947 2.25285L11.9776 3.19542V1.28583L11.9934 1.27719L10.9315 0.659848C10.5991 0.466859 10.2221 0.365259 9.83824 0.365259C9.4544 0.365259 9.07733 0.466859 8.74493 0.659848L0.975827 5.18128L0.91143 5.21869L0.739706 5.32518C0.600976 5.40757 0.486109 5.52504 0.406525 5.66591C0.326941 5.80678 0.285412 5.96614 0.286067 6.12816V6.30516V15.8027C0.286812 16.0653 0.356058 16.3231 0.486889 16.5504C0.617719 16.7777 0.805555 16.9664 1.03164 17.0979L8.71487 21.5589C9.05867 21.7687 9.44935 21.8885 9.85112 21.9071C10.2329 21.8943 10.6034 21.7736 10.9201 21.5589L18.9697 16.8863C19.0997 16.812 19.2079 16.7045 19.2833 16.5746C19.3587 16.4447 19.3986 16.2971 19.399 16.1467L19.4176 14.1033L17.6503 15.135L19.3675 14.1033L17.729 13.2787L19.4133 12.2901L19.4176 9.78617ZM0.865637 5.90079C0.878815 5.91281 0.893203 5.92342 0.908568 5.93245L0.858482 5.91374L0.865637 5.90079Z" fill="var(--fill-0, #FF4655)"/>
<path id="Vector_2" d="M9.87416 22.2407C9.45958 22.222 9.05643 22.0982 8.70214 21.8809L0.771333 17.2703C0.537697 17.1351 0.343469 16.9406 0.208099 16.7063C0.0727285 16.4719 0.000968264 16.2059 4.05969e-06 15.9349L4.05969e-06 6.06168C0.000486892 5.99446 0.0183697 5.92852 0.0518921 5.87036C0.0854145 5.8122 0.133421 5.76382 0.191185 5.72998C0.24895 5.69615 0.314481 5.67802 0.381328 5.67739C0.448175 5.67676 0.514033 5.69365 0.572419 5.72638L2.22384 6.41136L2.42704 15.3333L3.80227 16.4515V7.60432L6.02896 8.426L6.14774 17.6358L7.6074 18.6647V9.81754L9.83409 11.1127" fill="var(--fill-0, #FF4655)"/>
<path id="Vector_3" d="M9.8742 22.24C10.2683 22.2268 10.6507 22.1021 10.9775 21.8803L19.2861 17.0567C19.4198 16.9795 19.5309 16.8682 19.6081 16.734C19.6852 16.5999 19.7257 16.4475 19.7255 16.2925L19.7484 14.1815L12.068 18.6655V16.8163L19.7484 12.3107V9.72049L12.068 14.2203V12.3769L19.7255 7.78643V6.10565C19.7305 5.86972 19.6678 5.63732 19.545 5.43624C19.4222 5.23515 19.2444 5.07388 19.0328 4.97169L9.83699 10.8372L9.8742 22.24Z" fill="var(--fill-0, #E33E4B)"/>
<path id="Vector_4" d="M15.8963 3.15367L6.04931 8.86949L3.86411 7.70388L13.7383 1.9492L15.8963 3.15367Z" fill="var(--fill-0, #FF4655)"/>
<path id="Vector_5" d="M12.0854 0.941403L2.23984 6.65866L0.649961 5.75639C0.585899 5.71817 0.532829 5.66384 0.495968 5.59874C0.459108 5.53365 0.439725 5.46003 0.439725 5.38512C0.439725 5.31021 0.459108 5.23659 0.495968 5.1715C0.532829 5.10641 0.585899 5.05208 0.649961 5.01385L8.7296 0.305352C9.07265 0.105342 9.46215 7.23565e-06 9.85869 7.23565e-06C10.2552 7.23565e-06 10.6447 0.105342 10.9878 0.305352L12.0854 0.941403Z" fill="var(--fill-0, #FF4655)"/>
<path id="Vector_6" d="M19.7478 9.71901L18.1265 8.71169L12.0202 12.3769V14.3599L19.7478 9.71901Z" fill="var(--fill-0, #BF353F)"/>
<path id="Vector_7" d="M18.7473 5.97835L9.87485 11.1589L7.58519 10.0076L17.6025 4.10762L18.7473 4.80699L18.8088 4.84728C18.895 4.91638 18.9636 5.00522 19.0087 5.10637C19.0538 5.20753 19.0742 5.31808 19.0682 5.42878C19.0622 5.53948 19.0299 5.64712 18.9741 5.74273C18.9182 5.83833 18.8405 5.91912 18.7473 5.97835Z" fill="var(--fill-0, #FF4655)"/>
<g id="Vector_8">
</g>
<path id="Vector_9" d="M3.95094 7.72254L3.94951 14.5896L3.95094 14.5867V16.5697L2.22225 15.5062L2.22941 15.5019V6.65478L12.0678 0.94328V2.92482L3.95094 7.72254Z" fill="var(--fill-0, #BF353F)"/>
<path id="Vector_10" d="M15.8728 3.15607V5.13761L7.75595 9.93389L7.72733 18.7839L6.02726 17.719L6.03441 17.7133V8.86757L15.8728 3.15607Z" fill="var(--fill-0, #BF353F)"/>
<path id="Vector_11" d="M19.7478 14.1792L17.9834 13.3158L12.0202 16.7996V18.7826L19.7478 14.1792Z" fill="var(--fill-0, #BF353F)"/>
<path id="Vector_12" d="M0.715523 4.97642L0.472246 5.12032C0.328613 5.20522 0.209498 5.32634 0.126676 5.47171C0.0438533 5.61708 0.000190779 5.78167 4.05969e-06 5.9492L4.05969e-06 6.13052L0.662574 5.67291L0.715523 4.97642Z" fill="var(--fill-0, #FF4655)"/>
<path id="Vector_13" d="M19.6055 5.54659L19.7257 6.05313C19.7257 5.84441 19.6706 5.63945 19.566 5.45918C19.4614 5.2789 19.311 5.1298 19.1304 5.0271L18.6581 4.75656L17.3158 6.84171L19.6055 5.54659Z" fill="var(--fill-0, #FF4655)"/>
</g>
</svg>
