<svg preserveAspectRatio="none" width="100%" height="100%" overflow="visible" style="display: block;" viewBox="0 0 61.8649 9.85271" fill="none" xmlns="http://www.w3.org/2000/svg">
<g id="Frame 625286">
<path id="Vector" d="M0.000482656 0.189292H1.74327L2.95547 4.58886L3.29435 5.97921L3.62548 4.58886L4.83962 0.189292H6.5824L7.78299 4.58886L8.11605 5.95598L8.4375 4.58886L9.63808 0.189292H11.3247L8.92742 8.01247H7.18463L5.97243 3.6129L5.6626 2.28257L5.35471 3.6129L4.13669 8.01247H2.39391L0.000482656 0.189292Z" fill="var(--fill-0, #1A2128)"/>
<path id="Vector_2" d="M13.0668 0.189292H17.8692V1.75974H14.738V3.26821H17.782V4.83866H14.738V6.44202H17.9718V8.01247H13.0668V0.189292Z" fill="var(--fill-0, #1A2128)"/>
<path id="Vector_3" d="M20.1485 4.10152C20.1485 1.67711 21.8486 0.000165056 24.2614 0.000165056C26.6742 0.000165056 28.3744 1.59385 28.3744 4.10152C28.3744 5.73006 27.6967 6.97712 26.5329 7.64325C26.9328 7.97444 27.4051 8.20664 27.9116 8.321L27.3171 9.85271C26.3132 9.49494 25.3947 8.93246 24.6197 8.20094C24.4996 8.21256 24.3815 8.21256 24.2614 8.21256C21.7538 8.20288 20.1485 6.52593 20.1485 4.10152ZM26.6878 4.10152C26.6878 2.55238 25.737 1.54543 24.2614 1.54543C22.7859 1.54543 21.837 2.54463 21.837 4.10152C21.837 5.65841 22.7878 6.65761 24.2614 6.65761C25.7351 6.65761 26.6878 5.65841 26.6878 4.10152Z" fill="var(--fill-0, #1A2128)"/>
<path id="Vector_4" d="M30.3011 4.90837V0.189292H31.9664V4.90837C31.9664 5.9308 32.619 6.58532 33.653 6.58532C34.6871 6.58532 35.3183 5.9308 35.3183 4.90837V0.189292H36.9353V4.90837C36.9353 6.90676 35.6514 8.15382 33.6433 8.15382C31.5617 8.15382 30.3011 6.90676 30.3011 4.90837Z" fill="var(--fill-0, #1A2128)"/>
<path id="Vector_5" d="M38.9631 4.10152C38.9631 1.67711 40.6633 0.000165056 43.0761 0.000165056C45.4889 0.000165056 47.189 1.59385 47.189 4.10152C47.189 6.6092 45.5837 8.20288 43.0819 8.20288C40.58 8.20288 38.9631 6.52593 38.9631 4.10152ZM45.5005 4.10152C45.5005 2.55238 44.5497 1.54544 43.0761 1.54544C41.6024 1.54544 40.6517 2.54463 40.6517 4.10152C40.6517 5.65841 41.6024 6.65761 43.0819 6.65761C44.5613 6.65761 45.5005 5.65841 45.5005 4.10152Z" fill="var(--fill-0, #1A2128)"/>
<path id="Vector_6" d="M50.9617 1.75974H48.5838V0.189292H55.003V1.75974H52.6251V8.01247H50.9617V1.75974Z" fill="var(--fill-0, #1A2128)"/>
<path id="Vector_7" d="M56.9668 0.189292H61.7692V1.75974H58.6302V3.26821H61.6704V4.83866H58.6302V6.44202H61.8641V8.01247H56.9668V0.189292Z" fill="var(--fill-0, #1A2128)"/>
</g>
</svg>
